<svg version="1.1" id="Layer_1" xmlns="http://www.w3.org/2000/svg" xmlns:xlink="http://www.w3.org/1999/xlink" x="0px" y="0px"
	 width="100%" viewBox="0 0 579 579" enable-background="new 0 0 579 579" xml:space="preserve">
<path fill="#141413" opacity="1.000000" stroke="none" 
	d="
M1.000000,226.000000 
	C1.000000,150.666687 1.000000,75.833382 1.000000,1.000050 
	C193.999924,1.000033 386.999847,1.000033 579.999817,1.000017 
	C579.999878,193.999863 579.999878,386.999725 579.999939,579.999634 
	C387.000183,579.999756 194.000397,579.999756 1.000292,579.999878 
	C1.000000,462.166656 1.000000,344.333344 1.000000,226.000000 
M79.795212,447.681366 
	C93.306816,454.458160 106.345078,462.501709 120.423225,467.762299 
	C155.615387,480.912598 191.874619,483.048981 228.565521,474.376953 
	C233.645447,473.176300 237.686600,473.576233 241.807449,477.290985 
	C258.525208,492.360931 273.209930,509.006073 283.729492,529.060974 
	C285.544708,532.521545 287.327698,535.999023 289.275299,539.757690 
	C289.878357,538.838867 290.215363,538.454285 290.411652,538.007812 
	C301.162018,513.554504 317.685547,493.458252 337.793182,476.259186 
	C356.656342,460.124542 375.920593,444.458832 395.011108,428.590088 
	C397.016632,426.922974 399.040649,425.278076 401.116943,423.572906 
	C408.968414,430.944122 416.412262,438.096985 424.064209,445.019836 
	C426.466919,447.193665 426.955231,449.094696 426.182098,452.334961 
	C422.006653,469.833740 434.299194,485.198242 451.714752,484.632416 
	C468.286041,484.094025 479.247986,470.204163 476.333008,453.437805 
	C475.892792,450.905823 474.862061,448.650024 477.521973,446.223907 
	C496.723419,428.709839 515.767212,411.022430 534.791748,393.315552 
	C536.849670,391.400177 538.528320,391.003021 541.341370,391.990997 
	C556.265198,397.232452 571.147583,389.942169 575.321838,375.640289 
	C579.640930,360.842529 571.215393,346.554169 555.795593,342.928772 
	C553.111145,342.297607 551.922302,341.216858 551.323425,338.565277 
	C545.482605,312.701965 536.078979,288.183289 522.740601,265.263702 
	C518.697388,258.316101 517.942322,251.585999 519.961426,243.793808 
	C527.370483,215.201385 530.292542,186.068802 528.316772,156.586624 
	C527.374084,142.518433 525.366943,128.521591 523.887695,114.913322 
	C503.682587,114.913322 484.605438,114.913322 465.120819,114.913322 
	C472.595978,123.797974 479.664154,131.959549 486.419464,140.372375 
	C488.473633,142.930588 490.337891,144.094788 493.809357,144.031708 
	C502.284180,143.877716 508.341095,148.490372 512.274170,155.653473 
	C515.944763,162.338425 516.457031,169.305054 512.117737,176.052551 
	C506.573547,184.673737 494.775238,187.892838 485.615692,183.331558 
	C476.108734,178.597290 471.843353,167.516327 475.552673,157.416702 
	C476.147858,155.796082 477.231018,153.396637 476.554901,152.430099 
	C473.326508,147.814987 469.569214,143.569855 465.999969,139.193146 
	C465.059540,164.079376 465.141602,188.388245 464.974487,212.695404 
	C464.948242,216.512466 466.080872,219.230682 468.719055,221.909851 
	C473.623108,226.890076 478.220459,232.177658 482.852966,237.419037 
	C509.362030,267.412140 526.268066,302.291901 535.599609,341.042908 
	C536.293945,343.926147 535.974670,346.017822 533.646057,348.093994 
	C525.376221,355.467377 523.124573,364.637939 525.638855,375.329132 
	C526.028870,376.987762 525.263550,379.677246 524.037292,380.843292 
	C505.080200,398.868317 485.984222,416.747955 466.805573,434.537506 
	C465.746857,435.519531 463.337341,436.215118 462.146667,435.694458 
	C454.642395,432.413116 447.330719,432.379547 439.874939,435.740906 
	C438.944183,436.160522 437.085785,436.005219 436.440002,435.347656 
	C428.992584,427.763428 421.696259,420.030792 413.730774,411.678070 
	C414.633026,410.951385 416.183136,409.957550 417.421967,408.665314 
	C428.715820,396.885040 440.083740,385.171692 451.174866,373.202362 
	C462.225525,361.276642 468.970673,347.779572 467.268433,330.715302 
	C466.330078,321.309082 467.366150,311.722107 466.986023,302.237671 
	C466.772400,296.907684 467.738617,293.161957 472.428406,289.597504 
	C479.828766,283.972870 481.239960,272.982941 476.938171,264.537598 
	C472.864532,256.540131 462.894867,251.741714 454.222534,253.604507 
	C445.502655,255.477509 438.885406,263.128571 438.532013,272.559662 
	C438.405365,275.939056 436.937897,277.604004 434.403259,279.226044 
	C419.719055,288.623138 403.258942,293.310730 386.681641,297.957367 
	C373.419281,301.674866 359.997559,305.412323 347.462555,310.978485 
	C333.656403,317.109070 325.085297,328.611053 322.650055,343.911804 
	C322.223206,346.593536 322.467407,349.673645 323.383575,352.215912 
	C325.205292,357.270966 330.321594,357.815704 333.415955,353.393524 
	C334.917328,351.248016 335.938293,348.695587 336.823273,346.201935 
	C340.412506,336.088226 346.989807,328.468872 356.688232,324.171387 
	C364.256927,320.817596 372.204895,318.104309 380.221710,316.018890 
	C401.861420,310.389832 423.544556,305.055603 442.622894,292.610962 
	C446.013885,290.399078 450.939575,293.675629 450.974487,298.036621 
	C451.073242,310.367676 450.901947,322.704010 451.203796,335.029266 
	C451.398285,342.970245 448.622742,349.700989 444.070618,355.874451 
	C441.304260,359.626068 438.409088,363.296051 435.379395,366.838104 
	C407.349060,399.608765 373.390564,425.788818 339.900177,452.476532 
	C338.819641,453.337616 336.624664,453.972412 335.527618,453.464172 
	C319.878510,446.214355 306.509705,436.389618 299.426758,419.911896 
	C296.757690,413.702667 297.683197,411.628784 303.423767,408.040894 
	C307.641266,405.404938 311.823364,402.611603 315.594116,399.388702 
	C319.745605,395.840302 321.012421,391.075653 319.112946,385.785675 
	C317.246765,380.588379 313.079529,378.242950 307.926666,378.012756 
	C303.806976,377.828735 299.653473,378.603455 295.508118,378.734955 
	C291.252045,378.869904 286.986572,378.794434 282.727112,378.712799 
	C277.928650,378.620880 272.986969,377.608093 268.365662,378.436218 
	C259.092255,380.097931 255.412186,389.292450 261.202484,396.673584 
	C264.593048,400.995728 269.270447,404.557465 273.945282,407.565704 
	C281.287323,412.290283 281.949829,413.510773 278.302032,421.624817 
	C271.295319,437.210297 258.397064,446.259186 243.405197,452.851990 
	C242.010483,453.465332 239.444977,452.840210 238.090057,451.864197 
	C233.229187,448.362762 228.674179,444.439087 223.969360,440.718262 
	C191.232635,414.828125 159.778503,387.601990 133.537964,354.856171 
	C111.449730,327.292114 94.287895,297.020203 82.627258,263.641602 
	C81.424812,260.199615 81.636436,257.699768 84.011864,254.587173 
	C95.892754,239.019211 109.337906,224.981323 123.950500,211.991516 
	C178.730118,163.295349 242.287048,140.740952 315.671387,147.869553 
	C360.235413,152.198532 400.072510,168.922501 436.217804,194.962585 
	C440.155823,197.799622 444.187103,200.507141 448.365784,203.407043 
	C448.671509,202.329041 448.834747,202.020767 448.835693,201.711990 
	C448.914398,176.380188 449.063141,151.048065 448.969513,125.716827 
	C448.953125,121.278481 446.783417,118.142654 441.828583,116.931984 
	C433.745087,114.956856 429.097595,107.374863 430.928955,100.020447 
	C433.400177,90.096489 430.199432,81.208572 426.093475,71.431168 
	C415.243683,80.804581 404.653046,89.413887 394.697144,98.703499 
	C384.226349,108.473610 374.357361,118.889153 364.235992,129.033218 
	C358.638916,134.642883 352.422668,137.852142 344.052368,136.016037 
	C309.398071,128.414307 274.545746,128.046173 239.862610,135.240372 
	C228.313065,137.636063 220.296066,134.146423 212.782364,126.094933 
	C204.715790,117.451050 196.313705,109.100525 187.757629,100.936829 
	C160.163452,74.608154 129.533157,52.723656 94.183334,37.883709 
	C91.338051,36.689251 88.387505,35.745541 84.868149,34.459599 
	C80.044388,45.463749 74.946373,55.612831 71.059547,66.206314 
	C49.623314,124.630501 46.504757,184.215530 60.978241,244.665878 
	C62.955822,252.925522 61.406235,259.639984 57.513901,266.992859 
	C50.363403,280.500549 43.385471,294.245758 38.042511,308.530396 
	C29.694679,330.848663 26.492420,354.174835 31.335730,377.821716 
	C37.433289,407.592255 54.722397,429.992859 79.795212,447.681366 
M195.941925,298.741943 
	C167.748444,291.917114 140.668289,283.067169 121.709999,258.939178 
	C119.747208,256.441132 116.728683,254.484100 113.364769,256.636261 
	C109.954895,258.817810 109.823280,262.490295 111.500359,265.545502 
	C114.360359,270.755737 117.330673,276.101379 121.260590,280.489136 
	C130.557755,290.869385 142.458725,297.881073 155.400955,302.487366 
	C169.958466,307.668518 184.867172,311.961639 199.811096,315.933868 
	C219.441925,321.151978 236.754761,328.759491 243.411942,350.344513 
	C244.437973,353.671295 246.907806,357.036957 251.076889,356.181580 
	C255.598465,355.253876 256.475372,351.235504 256.548889,347.179321 
	C256.569794,346.025726 256.374847,344.853912 256.160919,343.712555 
	C253.580566,329.946320 245.925171,319.677551 234.235474,312.299072 
	C222.751694,305.050598 209.690857,302.133667 195.941925,298.741943 
M517.199646,89.133347 
	C511.601746,70.281380 504.427277,52.096024 494.582428,34.527508 
	C475.461182,41.592312 457.706329,50.313477 441.410187,61.331692 
	C443.262543,66.994843 444.895691,71.987869 446.377960,76.519615 
	C459.532654,69.208015 472.701935,61.888306 486.188416,54.392311 
	C487.427094,56.807289 488.239807,58.061069 488.744934,59.428471 
	C493.067078,71.129478 497.302979,82.862450 501.656952,94.551491 
	C502.177063,95.947723 503.174255,98.185402 504.078430,98.250397 
	C509.112244,98.612198 514.185547,98.424095 519.741577,98.424095 
	C518.808716,94.982201 518.119263,92.438301 517.199646,89.133347 
z"/>
<path fill="#F8F8F8" opacity="1.000000" stroke="none" 
	d="
M79.503403,447.470337 
	C54.722397,429.992859 37.433289,407.592255 31.335730,377.821716 
	C26.492420,354.174835 29.694679,330.848663 38.042511,308.530396 
	C43.385471,294.245758 50.363403,280.500549 57.513901,266.992859 
	C61.406235,259.639984 62.955822,252.925522 60.978241,244.665878 
	C46.504757,184.215530 49.623314,124.630501 71.059547,66.206314 
	C74.946373,55.612831 80.044388,45.463749 84.868149,34.459599 
	C88.387505,35.745541 91.338051,36.689251 94.183334,37.883709 
	C129.533157,52.723656 160.163452,74.608154 187.757629,100.936829 
	C196.313705,109.100525 204.715790,117.451050 212.782364,126.094933 
	C220.296066,134.146423 228.313065,137.636063 239.862610,135.240372 
	C274.545746,128.046173 309.398071,128.414307 344.052368,136.016037 
	C352.422668,137.852142 358.638916,134.642883 364.235992,129.033218 
	C374.357361,118.889153 384.226349,108.473610 394.697144,98.703499 
	C404.653046,89.413887 415.243683,80.804581 426.093475,71.431168 
	C430.199432,81.208572 433.400177,90.096489 430.928955,100.020447 
	C429.097595,107.374863 433.745087,114.956856 441.828583,116.931984 
	C446.783417,118.142654 448.953125,121.278481 448.969513,125.716827 
	C449.063141,151.048065 448.914398,176.380188 448.835693,201.711990 
	C448.834747,202.020767 448.671509,202.329041 448.365784,203.407043 
	C444.187103,200.507141 440.155823,197.799622 436.217804,194.962585 
	C400.072510,168.922501 360.235413,152.198532 315.671387,147.869553 
	C242.287048,140.740952 178.730118,163.295349 123.950500,211.991516 
	C109.337906,224.981323 95.892754,239.019211 84.011864,254.587173 
	C81.636436,257.699768 81.424812,260.199615 82.627258,263.641602 
	C94.287895,297.020203 111.449730,327.292114 133.537964,354.856171 
	C159.778503,387.601990 191.232635,414.828125 223.969360,440.718262 
	C228.674179,444.439087 233.229187,448.362762 238.090057,451.864197 
	C239.444977,452.840210 242.010483,453.465332 243.405197,452.851990 
	C258.397064,446.259186 271.295319,437.210297 278.302032,421.624817 
	C281.949829,413.510773 281.287323,412.290283 273.945282,407.565704 
	C269.270447,404.557465 264.593048,400.995728 261.202484,396.673584 
	C255.412186,389.292450 259.092255,380.097931 268.365662,378.436218 
	C272.986969,377.608093 277.928650,378.620880 282.727112,378.712799 
	C286.986572,378.794434 291.252045,378.869904 295.508118,378.734955 
	C299.653473,378.603455 303.806976,377.828735 307.926666,378.012756 
	C313.079529,378.242950 317.246765,380.588379 319.112946,385.785675 
	C321.012421,391.075653 319.745605,395.840302 315.594116,399.388702 
	C311.823364,402.611603 307.641266,405.404938 303.423767,408.040894 
	C297.683197,411.628784 296.757690,413.702667 299.426758,419.911896 
	C306.509705,436.389618 319.878510,446.214355 335.527618,453.464172 
	C336.624664,453.972412 338.819641,453.337616 339.900177,452.476532 
	C373.390564,425.788818 407.349060,399.608765 435.379395,366.838104 
	C438.409088,363.296051 441.304260,359.626068 444.070618,355.874451 
	C448.622742,349.700989 451.398285,342.970245 451.203796,335.029266 
	C450.901947,322.704010 451.073242,310.367676 450.974487,298.036621 
	C450.939575,293.675629 446.013885,290.399078 442.622894,292.610962 
	C423.544556,305.055603 401.861420,310.389832 380.221710,316.018890 
	C372.204895,318.104309 364.256927,320.817596 356.688232,324.171387 
	C346.989807,328.468872 340.412506,336.088226 336.823273,346.201935 
	C335.938293,348.695587 334.917328,351.248016 333.415955,353.393524 
	C330.321594,357.815704 325.205292,357.270966 323.383575,352.215912 
	C322.467407,349.673645 322.223206,346.593536 322.650055,343.911804 
	C325.085297,328.611053 333.656403,317.109070 347.462555,310.978485 
	C359.997559,305.412323 373.419281,301.674866 386.681641,297.957367 
	C403.258942,293.310730 419.719055,288.623138 434.403259,279.226044 
	C436.937897,277.604004 438.405365,275.939056 438.532013,272.559662 
	C438.885406,263.128571 445.502655,255.477509 454.222534,253.604507 
	C462.894867,251.741714 472.864532,256.540131 476.938171,264.537598 
	C481.239960,272.982941 479.828766,283.972870 472.428406,289.597504 
	C467.738617,293.161957 466.772400,296.907684 466.986023,302.237671 
	C467.366150,311.722107 466.330078,321.309082 467.268433,330.715302 
	C468.970673,347.779572 462.225525,361.276642 451.174866,373.202362 
	C440.083740,385.171692 428.715820,396.885040 417.421967,408.665314 
	C416.183136,409.957550 414.633026,410.951385 413.730774,411.678070 
	C421.696259,420.030792 428.992584,427.763428 436.440002,435.347656 
	C437.085785,436.005219 438.944183,436.160522 439.874939,435.740906 
	C447.330719,432.379547 454.642395,432.413116 462.146667,435.694458 
	C463.337341,436.215118 465.746857,435.519531 466.805573,434.537506 
	C485.984222,416.747955 505.080200,398.868317 524.037292,380.843292 
	C525.263550,379.677246 526.028870,376.987762 525.638855,375.329132 
	C523.124573,364.637939 525.376221,355.467377 533.646057,348.093994 
	C535.974670,346.017822 536.293945,343.926147 535.599609,341.042908 
	C526.268066,302.291901 509.362030,267.412140 482.852966,237.419037 
	C478.220459,232.177658 473.623108,226.890076 468.719055,221.909851 
	C466.080872,219.230682 464.948242,216.512466 464.974487,212.695404 
	C465.141602,188.388245 465.059540,164.079376 465.999969,139.193146 
	C469.569214,143.569855 473.326508,147.814987 476.554901,152.430099 
	C477.231018,153.396637 476.147858,155.796082 475.552673,157.416702 
	C471.843353,167.516327 476.108734,178.597290 485.615692,183.331558 
	C494.775238,187.892838 506.573547,184.673737 512.117737,176.052551 
	C516.457031,169.305054 515.944763,162.338425 512.274170,155.653473 
	C508.341095,148.490372 502.284180,143.877716 493.809357,144.031708 
	C490.337891,144.094788 488.473633,142.930588 486.419464,140.372375 
	C479.664154,131.959549 472.595978,123.797974 465.120819,114.913322 
	C484.605438,114.913322 503.682587,114.913322 523.887695,114.913322 
	C525.366943,128.521591 527.374084,142.518433 528.316772,156.586624 
	C530.292542,186.068802 527.370483,215.201385 519.961426,243.793808 
	C517.942322,251.585999 518.697388,258.316101 522.740601,265.263702 
	C536.078979,288.183289 545.482605,312.701965 551.323425,338.565277 
	C551.922302,341.216858 553.111145,342.297607 555.795593,342.928772 
	C571.215393,346.554169 579.640930,360.842529 575.321838,375.640289 
	C571.147583,389.942169 556.265198,397.232452 541.341370,391.990997 
	C538.528320,391.003021 536.849670,391.400177 534.791748,393.315552 
	C515.767212,411.022430 496.723419,428.709839 477.521973,446.223907 
	C474.862061,448.650024 475.892792,450.905823 476.333008,453.437805 
	C479.247986,470.204163 468.286041,484.094025 451.714752,484.632416 
	C434.299194,485.198242 422.006653,469.833740 426.182098,452.334961 
	C426.955231,449.094696 426.466919,447.193665 424.064209,445.019836 
	C416.412262,438.096985 408.968414,430.944122 401.116943,423.572906 
	C399.040649,425.278076 397.016632,426.922974 395.011108,428.590088 
	C375.920593,444.458832 356.656342,460.124542 337.793182,476.259186 
	C317.685547,493.458252 301.162018,513.554504 290.411652,538.007812 
	C290.215363,538.454285 289.878357,538.838867 289.275299,539.757690 
	C287.327698,535.999023 285.544708,532.521545 283.729492,529.060974 
	C273.209930,509.006073 258.525208,492.360931 241.807449,477.290985 
	C237.686600,473.576233 233.645447,473.176300 228.565521,474.376953 
	C191.874619,483.048981 155.615387,480.912598 120.423225,467.762299 
	C106.345078,462.501709 93.306816,454.458160 79.503403,447.470337 
M83.812775,78.443199 
	C66.140007,130.572968 63.948357,183.404053 75.798233,238.466431 
	C112.224373,195.318909 154.373688,162.827927 207.252884,143.947601 
	C173.827286,107.539810 138.479614,75.446945 93.030334,54.870720 
	C89.875526,62.877617 86.957664,70.283150 83.812775,78.443199 
M52.980801,392.356812 
	C59.144840,406.178528 68.349350,417.758972 80.051933,427.147064 
	C116.085693,456.054169 157.637589,466.277069 203.100433,462.514252 
	C208.767029,462.045258 214.367630,460.778870 219.998810,459.881958 
	C220.167450,459.370758 220.336075,458.859528 220.504715,458.348328 
	C157.170929,409.736359 100.429344,355.612244 70.269035,278.913452 
	C67.585365,281.969727 65.419037,284.549011 64.259171,287.521057 
	C58.881653,301.300354 52.801170,314.912811 48.816372,329.102844 
	C42.907928,350.143036 43.438713,371.299774 52.980801,392.356812 
M275.735809,488.767731 
	C280.145477,494.545868 284.555145,500.324036 288.613281,505.641541 
	C300.185486,492.365082 311.667297,479.192352 323.440552,465.685211 
	C310.103394,458.189148 298.130524,448.924042 289.404816,435.103546 
	C280.775482,449.922974 267.721893,458.381836 254.355026,466.078339 
	C261.598267,473.739655 268.441986,480.978394 275.735809,488.767731 
z"/>
<path fill="#F6F6F6" opacity="1.000000" stroke="none" 
	d="
M196.342514,298.842834 
	C209.690857,302.133667 222.751694,305.050598 234.235474,312.299072 
	C245.925171,319.677551 253.580566,329.946320 256.160919,343.712555 
	C256.374847,344.853912 256.569794,346.025726 256.548889,347.179321 
	C256.475372,351.235504 255.598465,355.253876 251.076889,356.181580 
	C246.907806,357.036957 244.437973,353.671295 243.411942,350.344513 
	C236.754761,328.759491 219.441925,321.151978 199.811096,315.933868 
	C184.867172,311.961639 169.958466,307.668518 155.400955,302.487366 
	C142.458725,297.881073 130.557755,290.869385 121.260590,280.489136 
	C117.330673,276.101379 114.360359,270.755737 111.500359,265.545502 
	C109.823280,262.490295 109.954895,258.817810 113.364769,256.636261 
	C116.728683,254.484100 119.747208,256.441132 121.709999,258.939178 
	C140.668289,283.067169 167.748444,291.917114 196.342514,298.842834 
z"/>
<path fill="#F6F6F6" opacity="1.000000" stroke="none" 
	d="
M517.314697,89.513870 
	C518.119263,92.438301 518.808716,94.982201 519.741577,98.424095 
	C514.185547,98.424095 509.112244,98.612198 504.078430,98.250397 
	C503.174255,98.185402 502.177063,95.947723 501.656952,94.551491 
	C497.302979,82.862450 493.067078,71.129478 488.744934,59.428471 
	C488.239807,58.061069 487.427094,56.807289 486.188416,54.392311 
	C472.701935,61.888306 459.532654,69.208015 446.377960,76.519615 
	C444.895691,71.987869 443.262543,66.994843 441.410187,61.331692 
	C457.706329,50.313477 475.461182,41.592312 494.582428,34.527508 
	C504.427277,52.096024 511.601746,70.281380 517.314697,89.513870 
z"/>
<path fill="#151515" opacity="1.000000" stroke="none" 
	d="
M83.926285,78.065933 
	C86.957664,70.283150 89.875526,62.877617 93.030334,54.870720 
	C138.479614,75.446945 173.827286,107.539810 207.252884,143.947601 
	C154.373688,162.827927 112.224373,195.318909 75.798233,238.466431 
	C63.948357,183.404053 66.140007,130.572968 83.926285,78.065933 
z"/>
<path fill="#151515" opacity="1.000000" stroke="none" 
	d="
M52.837364,392.005676 
	C43.438713,371.299774 42.907928,350.143036 48.816372,329.102844 
	C52.801170,314.912811 58.881653,301.300354 64.259171,287.521057 
	C65.419037,284.549011 67.585365,281.969727 70.269035,278.913452 
	C100.429344,355.612244 157.170929,409.736359 220.504715,458.348328 
	C220.336075,458.859528 220.167450,459.370758 219.998810,459.881958 
	C214.367630,460.778870 208.767029,462.045258 203.100433,462.514252 
	C157.637589,466.277069 116.085693,456.054169 80.051933,427.147064 
	C68.349350,417.758972 59.144840,406.178528 52.837364,392.005676 
z"/>
<path fill="#181817" opacity="1.000000" stroke="none" 
	d="
M275.510773,488.492432 
	C268.441986,480.978394 261.598267,473.739655 254.355026,466.078339 
	C267.721893,458.381836 280.775482,449.922974 289.404816,435.103546 
	C298.130524,448.924042 310.103394,458.189148 323.440552,465.685211 
	C311.667297,479.192352 300.185486,492.365082 288.613281,505.641541 
	C284.555145,500.324036 280.145477,494.545868 275.510773,488.492432 
z"/>
</svg>